<svg width="23" height="23" viewBox="0 0 23 23" fill="none" xmlns="http://www.w3.org/2000/svg">
<path d="M6.66667 0.625C3.33046 0.625 0.625 3.33046 0.625 6.66667V16.3333C0.625 19.6695 3.33046 22.375 6.66667 22.375H16.3333C19.6695 22.375 22.375 19.6695 22.375 16.3333V6.66667C22.375 3.33046 19.6695 0.625 16.3333 0.625H6.66667ZM18.75 3.04167C19.417 3.04167 19.9583 3.583 19.9583 4.25C19.9583 4.917 19.417 5.45833 18.75 5.45833C18.083 5.45833 17.5417 4.917 17.5417 4.25C17.5417 3.583 18.083 3.04167 18.75 3.04167ZM11.5 5.45833C14.8362 5.45833 17.5417 8.16379 17.5417 11.5C17.5417 14.8362 14.8362 17.5417 11.5 17.5417C8.16379 17.5417 5.45833 14.8362 5.45833 11.5C5.45833 8.16379 8.16379 5.45833 11.5 5.45833ZM11.5 7.875C10.5386 7.875 9.61656 8.25692 8.93674 8.93674C8.25692 9.61656 7.875 10.5386 7.875 11.5C7.875 12.4614 8.25692 13.3834 8.93674 14.0633C9.61656 14.7431 10.5386 15.125 11.5 15.125C12.4614 15.125 13.3834 14.7431 14.0633 14.0633C14.7431 13.3834 15.125 12.4614 15.125 11.5C15.125 10.5386 14.7431 9.61656 14.0633 8.93674C13.3834 8.25692 12.4614 7.875 11.5 7.875Z" fill="#00609C"/>
</svg>
