<svg width="158" height="64" viewBox="0 0 158 64" fill="none" xmlns="http://www.w3.org/2000/svg">
<path d="M16.4707 24.2172V63.8023L0 45.511V0.315918H15.7563L32.9415 17.4221L50.0869 0.315918H65.8433V63.8023H49.3725V24.2172L32.9415 40.5727L16.4707 24.2172Z" fill="#FF4438"/>
<path d="M141.529 0L158 18.963V63.8025H141.529V0Z" fill="#E1B77E"/>
<path d="M131.924 5.72826C128.313 2.1332 123.947 0.315918 118.827 0.315918H71.5186V63.8023H87.9893V37.1752H118.867C123.987 37.1752 128.313 35.3579 131.964 31.7628C135.576 28.1678 137.401 23.8221 137.401 18.7258C137.362 13.669 135.536 9.32333 131.924 5.72826ZM111.644 24.5727H96.2445H88.029V12.7999H111.644C119.423 12.7999 120.891 16.1579 120.891 18.6863C120.891 21.2147 119.859 24.5727 111.644 24.5727Z" fill="#FF8300"/>
</svg>
