<svg width="200" height="95" viewBox="0 0 200 95" fill="none" xmlns="http://www.w3.org/2000/svg">
<path d="M20.8411 30.776V81.1414L0 57.8448V0.412109H19.9518L41.6771 22.1315L63.4025 0.412109H83.3543V81.1414H62.5182V30.776L41.6771 51.6063L20.8411 30.776Z" fill="#00609C"/>
<path d="M179.164 0L200 24.1203V81.1362H179.164V0Z" fill="#98B8AD"/>
<path d="M167.02 7.28319C162.433 2.70224 156.911 0.406738 150.455 0.406738H90.5439V81.136H111.385V47.2862H150.46C156.921 47.2862 162.443 44.9957 167.025 40.4097C171.612 35.8238 173.903 30.3035 173.903 23.849C173.903 17.3944 171.612 11.8692 167.025 7.28822L167.02 7.28319ZM141.335 31.2328H111.455V16.2593H141.335C151.163 16.2593 153.027 20.5238 153.027 23.7435C153.027 26.9632 151.721 31.2277 141.335 31.2277V31.2328Z" fill="#007078"/>
<path d="M139.975 93.834V86.8069H141.648V93.834H139.975Z" fill="#FF4438"/>
<path d="M150.777 86.8069V93.834H149.104L145.923 89.4841V93.834H144.25V86.8069H145.923L149.104 91.1568V86.8069H150.777Z" fill="#FF4438"/>
<path d="M158.897 91.7195C158.897 93.0154 157.872 93.9999 155.967 93.9999C154.169 93.9999 153.038 92.8295 153.038 92.8295L153.802 91.4934C154.576 92.2569 155.379 92.498 155.967 92.498C156.897 92.498 157.223 92.2167 157.223 91.83C157.223 91.4934 156.972 91.2875 156.053 91.1318C154.169 90.8053 153.289 90.1372 153.289 88.9267C153.289 87.7161 154.324 86.6462 156.073 86.6462C156.304 86.6462 157.696 86.6864 158.625 87.5453L157.892 88.8614C157.892 88.8614 157.243 88.1481 156.053 88.1481C155.48 88.1481 154.967 88.3591 154.967 88.7458C154.967 89.0673 155.209 89.2381 156.053 89.4139C157.706 89.7705 158.897 90.2176 158.897 91.7245V91.7195Z" fill="#FF4438"/>
<path d="M166.016 86.8069V88.3138H164.177V93.834H162.504V88.3138H160.665V86.8069H166.021H166.016Z" fill="#FF4438"/>
<path d="M168.282 93.834V86.8069H169.955V93.834H168.282Z" fill="#FF4438"/>
<path d="M177.577 86.8069V88.3138H175.738V93.834H174.065V88.3138H172.226V86.8069H177.582H177.577Z" fill="#FF4438"/>
<path d="M185.701 86.8069V90.8202C185.701 92.6687 184.591 93.9998 182.691 93.9998C180.792 93.9998 179.677 92.6737 179.677 90.8202V86.8069H181.35V90.991C181.35 91.9203 181.852 92.4979 182.686 92.4979C183.52 92.4979 184.023 91.9102 184.023 90.991V86.8069H185.696H185.701Z" fill="#FF4438"/>
<path d="M193.153 86.8069V88.3138H191.314V93.834H189.641V88.3138H187.802V86.8069H193.158H193.153Z" fill="#FF4438"/>
<path d="M199.936 88.3138V88.1932L198.7 86.8069H195.419V93.834H199.936V92.3271H197.092V91.0714H199.433V89.5695H197.092V88.3138H199.936Z" fill="#FF4438"/>
<path d="M90.6399 89.1476C90.6399 90.4234 89.7808 91.5737 88.2986 91.5737H86.7913V93.834H85.1182V86.8069H87.962C89.7908 86.8069 90.6399 87.7914 90.6399 89.1476ZM88.9668 89.1878C88.9668 88.5599 88.5046 88.3088 87.9519 88.3088H86.7913V90.0668H87.9519C88.5046 90.0668 88.9668 89.7453 88.9668 89.1878Z" fill="#FF4438"/>
<path d="M92.7402 93.834V86.8069H94.4133V93.834H92.7402Z" fill="#FF4438"/>
<path d="M102.141 91.6792L102.789 93.1559C102.181 93.6984 101.251 94.0048 100.447 94.0048C98.322 94.0048 96.5986 92.3522 96.5986 90.323C96.5986 88.2937 98.322 86.6411 100.447 86.6411C101.251 86.6411 102.186 86.9324 102.789 87.4749L102.141 88.9617C101.744 88.4594 101.136 88.148 100.447 88.148C99.2465 88.148 98.2717 89.1225 98.2717 90.323C98.2717 91.5234 99.2465 92.4979 100.447 92.4979C101.136 92.4979 101.744 92.1714 102.141 91.6842V91.6792Z" fill="#FF4438"/>
<path d="M109.989 86.8069V88.3138H108.15V93.834H106.477V88.3138H104.638V86.8069H109.994H109.989Z" fill="#FF4438"/>
<path d="M118.108 86.8069V90.8202C118.108 92.6687 116.998 93.9998 115.099 93.9998C113.199 93.9998 112.084 92.6737 112.084 90.8202V86.8069H113.757V90.991C113.757 91.9203 114.26 92.4979 115.094 92.4979C115.928 92.4979 116.43 91.9102 116.43 90.991V86.8069H118.103H118.108Z" fill="#FF4438"/>
<path d="M124.474 93.834L122.906 91.5737H122.218V93.834H120.545V86.8069H123.389C125.218 86.8069 126.067 87.7914 126.067 89.1476C126.067 90.1421 125.554 91.0513 124.625 91.418L126.403 93.834H124.479H124.474ZM122.218 90.0718H123.379C123.931 90.0718 124.394 89.7503 124.394 89.1928C124.394 88.5649 123.931 88.3138 123.379 88.3138H122.218V90.0718Z" fill="#FF4438"/>
<path d="M130.257 88.3139V89.5696H132.598V91.0765H130.257V92.3323H133.101V93.8392H128.584V86.812H133.101V88.3189H130.257V88.3139Z" fill="#FF4438"/>
<path d="M48.0988 90.323C48.0988 92.3522 46.4156 94.0048 44.3355 94.0048C42.2554 94.0048 40.5723 92.3522 40.5723 90.323C40.5723 88.2937 42.2554 86.6411 44.3355 86.6411C46.4156 86.6411 48.0988 88.2937 48.0988 90.323ZM46.4257 90.323C46.4257 89.1225 45.4861 88.148 44.3355 88.148C43.1849 88.148 42.2454 89.1225 42.2454 90.323C42.2454 91.5234 43.1849 92.4979 44.3355 92.4979C45.4861 92.4979 46.4257 91.5234 46.4257 90.323Z" fill="#FF4438"/>
<path d="M49.2744 86.8069H51.1133L52.7864 91.1568L54.4596 86.8069H56.2985L53.4547 93.834H52.1182L49.2744 86.8069Z" fill="#FF4438"/>
<path d="M58.2324 93.834V86.8069H59.9055V93.834H58.2324Z" fill="#FF4438"/>
<path d="M69.0354 86.8069V93.834H67.3623L64.1819 89.4841V93.834H62.5088V86.8069H64.1819L67.3623 91.1568V86.8069H69.0354Z" fill="#FF4438"/>
<path d="M78.4107 90.323C78.4107 92.3522 76.9235 94.0048 74.8987 94.0048C72.8739 94.0048 71.2158 92.3522 71.2158 90.323C71.2158 88.2937 72.8688 86.6411 74.8987 86.6411C76.3507 86.6411 77.4712 87.4548 78.0791 88.6503L76.5718 89.0973C76.2603 88.6051 75.7779 88.148 74.8987 88.148C73.728 88.148 72.8889 89.1225 72.8889 90.323C72.8889 91.5234 73.7481 92.4979 74.8987 92.4979C75.798 92.4979 76.5115 91.9856 76.6572 91.1618H74.3962V89.6549H78.3504C78.3906 89.886 78.4157 90.0819 78.4157 90.323H78.4107Z" fill="#FF4438"/>
<path d="M37.7987 86.8069H36.1306L34.4525 90.991L32.7794 86.8069H31.1063L30.4883 91.9956L31.9654 93.6482L32.4478 89.8207L33.9551 93.834H34.9549L36.4623 89.8207L36.9647 93.834H38.6378L37.7987 86.8069Z" fill="#FF4438"/>
</svg>
