<svg width="23" height="23" viewBox="0 0 23 23" fill="none" xmlns="http://www.w3.org/2000/svg">
<path d="M19.9583 0.625H3.04167C1.70646 0.625 0.625 1.70646 0.625 3.04167V19.9583C0.625 21.2935 1.70646 22.375 3.04167 22.375H19.9583C21.2935 22.375 22.375 21.2935 22.375 19.9583V3.04167C22.375 1.70646 21.2935 0.625 19.9583 0.625ZM17.6021 8.49608C17.6021 8.6 17.6021 8.70271 17.6021 8.91054C17.6021 12.8461 14.5982 17.4039 9.10871 17.4039C7.45208 17.4039 5.89817 16.8855 4.55208 16.0578C4.75871 16.0578 5.07046 16.0578 5.27708 16.0578C6.62317 16.0578 7.97046 15.5395 9.006 14.8145C7.65992 14.8145 6.62438 13.8828 6.20992 12.7434C6.41654 12.7434 6.62437 12.8473 6.72829 12.8473C7.03883 12.8473 7.24667 12.8473 7.55721 12.7434C6.21113 12.4328 5.17558 11.2934 5.17558 9.84338C5.59004 10.05 6.0045 10.1539 6.52167 10.2578C5.69275 9.53283 5.17558 8.70392 5.17558 7.66838C5.17558 7.15 5.2795 6.63283 5.59004 6.21838C7.04004 7.97892 9.21504 9.22229 11.7006 9.325C11.7006 9.11837 11.5967 8.91054 11.5967 8.6C11.5967 6.94338 12.9427 5.59608 14.6006 5.59608C15.4295 5.59608 16.2572 5.90663 16.7756 6.52771C17.5006 6.42379 18.1217 6.11325 18.64 5.80271C18.4334 6.52771 17.915 7.04608 17.294 7.45933C17.915 7.35542 18.4334 7.25271 19.0545 6.94096C18.6376 7.56446 18.1205 8.08162 17.6021 8.49608Z" fill="#00609C"/>
</svg>
