<svg width="23" height="25" viewBox="0 0 23 25" fill="none" xmlns="http://www.w3.org/2000/svg">
<path d="M3.86296 0.416504L5.6495 6.87354V9.96989H7.19767V6.87354L9.00781 0.416504H7.44784L6.79883 3.35474C6.61637 4.21265 6.50035 4.82241 6.44718 5.18612H6.39998C6.32386 4.67741 6.20784 4.0631 6.04834 3.34294L5.42293 0.416504H3.86296ZM10.8132 2.85441C10.2888 2.85441 9.86616 2.95689 9.54354 3.16593C9.22091 3.37377 8.98306 3.70632 8.83081 4.16187C8.67977 4.61741 8.60425 5.22042 8.60425 5.97201V6.98682C8.60425 7.72994 8.66957 8.32506 8.80249 8.77336C8.93541 9.22165 9.15972 9.5519 9.4751 9.76457C9.79047 9.97723 10.2244 10.0832 10.7778 10.0832C11.3167 10.0832 11.7452 9.97833 12.0593 9.76929C12.3735 9.56025 12.6012 9.23235 12.7414 8.78044C12.8815 8.32852 12.9514 7.73115 12.9514 6.98682V5.97201C12.9514 5.22163 12.8804 4.62086 12.7367 4.16895C12.5929 3.71824 12.364 3.38568 12.0522 3.17301C11.7405 2.96035 11.3292 2.85441 10.8132 2.85441ZM13.7703 2.99129V8.20459C13.7703 8.84984 13.8785 9.32439 14.0984 9.62769C14.3183 9.93098 14.6598 10.0832 15.1226 10.0832C15.7896 10.0832 16.2925 9.76081 16.626 9.11556H16.659L16.7959 9.96989H18.0255V2.99129H16.4561V8.53499C16.3956 8.66429 16.3032 8.77022 16.1776 8.8536C16.0519 8.93818 15.9223 8.97868 15.7858 8.97868C15.6263 8.97868 15.5125 8.91335 15.4436 8.78044C15.3747 8.64752 15.3398 8.4243 15.3398 8.11255V2.99129H13.7703ZM10.7778 3.9353C10.9977 3.9353 11.1534 4.05023 11.2404 4.28223C11.3274 4.51302 11.3702 4.88054 11.3702 5.382V7.55558C11.3702 8.07154 11.3274 8.44471 11.2404 8.67188C11.1534 8.89904 10.9989 9.01287 10.7802 9.01408C10.5603 9.01408 10.4081 8.89904 10.3247 8.67188C10.2401 8.44471 10.1996 8.07154 10.1996 7.55558V5.382C10.1996 4.88175 10.2424 4.51423 10.3294 4.28223C10.4164 4.05143 10.5652 3.9353 10.7778 3.9353ZM3.04167 11.2915C1.7125 11.2915 0.625 12.379 0.625 13.7082V22.1665C0.625 23.4957 1.7125 24.5832 3.04167 24.5832H19.9583C21.2875 24.5832 22.375 23.4957 22.375 22.1665V13.7082C22.375 12.379 21.2875 11.2915 19.9583 11.2915H3.04167ZM11.559 13.7082H12.8358V16.8116H12.8452C12.96 16.5869 13.1246 16.4065 13.3361 16.2688C13.5476 16.131 13.7764 16.0635 14.0205 16.0635C14.3347 16.0635 14.5804 16.1469 14.7592 16.3136C14.938 16.4804 15.0689 16.7498 15.1486 17.1208C15.2284 17.4929 15.2666 18.0092 15.2666 18.6689V19.6012H15.269C15.269 20.4796 15.1618 21.1231 14.9504 21.5364C14.7389 21.9496 14.4098 22.1571 13.9615 22.1571C13.7114 22.1571 13.4849 22.0996 13.2795 21.9848C13.074 21.87 12.9196 21.7122 12.8169 21.5128H12.7886L12.6541 22.0697H11.559V13.7082ZM3.62931 14.0055H7.55876V15.0746H6.24186V22.0697H4.94621V15.0746H3.62931V14.0055ZM17.6597 16.0658C18.114 16.0658 18.4634 16.1493 18.7075 16.316C18.9504 16.4827 19.1217 16.7432 19.222 17.0948C19.3211 17.4476 19.3707 17.9346 19.3707 18.5557V19.5658H17.1523V19.8655C17.1523 20.2437 17.1623 20.5266 17.1853 20.7151C17.2083 20.9036 17.2545 21.0423 17.3245 21.1281C17.3946 21.2151 17.5028 21.2579 17.6502 21.2579C17.8484 21.2579 17.9848 21.1801 18.0585 21.0266C18.1322 20.8732 18.1728 20.6185 18.1789 20.2596L19.3235 20.3257C19.3295 20.3764 19.3329 20.4487 19.3329 20.5381C19.3329 21.083 19.183 21.49 18.8845 21.7582C18.5861 22.0277 18.1669 22.1618 17.6219 22.1618C16.9682 22.1618 16.5094 21.9554 16.246 21.5458C15.9826 21.1362 15.8519 20.5028 15.8519 19.6436V18.6147C15.8519 17.7302 15.9883 17.0843 16.2602 16.6771C16.532 16.2699 16.9999 16.0658 17.6597 16.0658ZM7.16227 16.1791H8.49097V20.505C8.49097 20.7673 8.52029 20.9556 8.57829 21.0667C8.63629 21.1791 8.73088 21.2343 8.86621 21.2343C8.981 21.2343 9.09385 21.1994 9.19897 21.1281C9.30531 21.058 9.38066 20.9678 9.43262 20.8591V16.1791H10.7613V22.0697H10.759H9.72054L9.60726 21.3476H9.57658C9.29383 21.8937 8.87118 22.1665 8.30689 22.1665C7.91538 22.1665 7.6292 22.038 7.44312 21.7818C7.25703 21.5257 7.16227 21.1243 7.16227 20.5806V16.1791ZM17.6313 16.9626C17.49 16.9626 17.3851 17.0056 17.3175 17.0877C17.2498 17.1711 17.2047 17.3075 17.1829 17.496C17.16 17.6845 17.1499 17.9708 17.1499 18.3551V18.7775H18.1199V18.3551C18.1199 17.9769 18.1075 17.6918 18.0821 17.496C18.0579 17.3003 18.0105 17.1628 17.9429 17.083C17.8752 17.0033 17.7727 16.9626 17.6313 16.9626ZM13.4234 17.0051C13.2953 17.0051 13.1782 17.0558 13.0694 17.1585C12.9607 17.2612 12.8828 17.3932 12.8381 17.5527V20.8968C12.8961 20.9995 12.9717 21.0761 13.0647 21.1281C13.1577 21.1788 13.2568 21.206 13.3668 21.206C13.5082 21.206 13.6185 21.1553 13.7019 21.0526C13.7853 20.9499 13.8462 20.7774 13.8813 20.5334C13.9163 20.2905 13.9332 19.9522 13.9332 19.5233V18.7657C13.9332 18.3041 13.9197 17.9491 13.8907 17.699C13.8617 17.4489 13.8098 17.2684 13.7373 17.1632C13.6636 17.0581 13.5588 17.0051 13.4234 17.0051Z" fill="#00609C"/>
</svg>
